<?xml version="1.0" standalone="no"?>
<!DOCTYPE svg PUBLIC "-//W3C//DTD SVG 20010904//EN"
 "http://www.w3.org/TR/2001/REC-SVG-20010904/DTD/svg10.dtd">
<svg version="1.0" xmlns="http://www.w3.org/2000/svg"
 width="512.000000pt" height="512.000000pt" viewBox="0 0 512.000000 512.000000"
 preserveAspectRatio="xMidYMid meet">
<metadata>
Created by potrace 1.16, written by Peter Selinger 2001-2019
</metadata>
<g transform="translate(0.000000,512.000000) scale(0.100000,-0.100000)"
fill="#000000" stroke="none">
<path d="M2227 4813 c-27 -4 -28 -6 -25 -56 l3 -52 -37 -3 c-35 -3 -37 -2 -44
33 -6 35 -8 37 -37 31 -16 -3 -34 -6 -39 -6 -5 0 -6 -19 -2 -45 6 -43 5 -45
-18 -45 -14 0 -36 13 -52 29 -27 28 -27 29 -7 36 12 3 21 11 21 16 0 11 -22 6
-79 -17 -35 -14 -35 -18 -15 -87 4 -13 -3 -21 -27 -31 -42 -18 -55 -12 -69 29
l-11 34 -37 -13 c-39 -14 -42 -22 -28 -83 10 -44 -16 -45 -41 -3 -15 25 -22
30 -43 25 -37 -9 -42 -19 -25 -51 20 -38 19 -51 -4 -64 -35 -18 -59 -11 -81
25 -23 37 -26 37 -88 -3 l-22 -14 31 -36 32 -36 -23 -18 c-20 -16 -24 -16 -43
-3 -28 20 -43 19 -27 -1 30 -35 44 -34 149 17 56 27 107 49 112 49 5 0 29 10
52 21 68 35 242 98 345 125 382 99 758 88 1077 -31 381 -142 694 -392 937
-745 83 -120 98 -150 98 -195 0 -41 -10 -64 -53 -117 l-30 -37 32 -49 c44 -69
41 -94 -19 -158 -27 -29 -50 -59 -50 -66 0 -7 11 -69 25 -136 13 -68 27 -150
31 -183 4 -32 9 -59 11 -59 14 0 210 116 236 140 l31 27 -13 57 c-7 31 -26 96
-42 144 -41 120 -44 136 -14 73 68 -145 139 -497 160 -802 l7 -95 -81 -23
c-121 -33 -235 -79 -259 -104 -11 -12 -28 -47 -37 -77 -39 -129 -78 -235 -117
-320 -40 -89 -42 -91 -85 -102 -34 -8 -53 -22 -81 -57 -56 -69 -184 -201 -196
-201 -5 0 -32 -18 -58 -41 -27 -22 -99 -74 -161 -115 -302 -201 -579 -294
-873 -294 -158 0 -170 -7 -168 -107 2 -88 18 -143 50 -178 l26 -28 146 6 c276
12 546 87 777 214 105 58 242 154 256 179 9 18 6 39 -21 119 -30 89 -31 98
-16 113 22 22 27 14 71 -111 31 -88 37 -117 33 -159 -5 -46 -4 -50 9 -32 28
39 26 65 -16 188 -22 66 -41 126 -41 133 0 11 319 338 324 331 2 -2 18 -32 37
-67 18 -35 59 -92 90 -127 40 -44 56 -68 52 -82 -18 -69 -258 -332 -423 -463
-297 -237 -588 -369 -919 -418 -114 -17 -133 -25 -143 -54 -6 -15 -212 -20
-338 -8 -603 56 -1115 386 -1446 931 -105 173 -193 391 -239 591 l-18 76 27
36 c16 21 30 56 36 90 11 67 18 83 60 122 31 30 33 30 143 30 110 0 112 0 115
-23 3 -19 -15 -43 -77 -106 -93 -95 -105 -119 -91 -179 37 -166 141 -401 253
-569 141 -212 314 -382 521 -512 86 -54 106 -60 106 -30 0 8 5 14 10 14 6 0 8
-11 4 -25 -14 -56 -12 -59 76 -101 64 -31 96 -54 124 -88 55 -68 70 -63 64 23
-4 46 -12 80 -26 103 -57 90 -64 110 -57 157 10 66 9 90 -4 105 -7 8 -53 38
-103 67 -190 112 -398 304 -516 478 -163 237 -241 485 -249 791 -8 271 29 478
118 665 167 353 492 640 853 755 125 39 316 72 397 68 l63 -3 43 -64 c42 -60
43 -64 28 -87 -14 -21 -14 -27 -1 -52 33 -65 67 -88 135 -96 78 -9 206 -48
281 -86 123 -62 262 -191 383 -355 70 -94 135 -157 156 -150 47 15 70 -31 29
-59 -44 -31 -66 -16 -164 114 -70 93 -219 245 -289 295 -125 89 -253 138 -411
156 -86 10 -97 10 -131 -8 -69 -36 -99 -121 -68 -195 4 -11 3 -18 -3 -18 -6 0
-14 26 -18 57 -6 53 0 96 21 147 8 18 5 19 -50 12 -165 -19 -311 -102 -483
-273 -62 -62 -128 -119 -146 -127 -23 -10 -43 -31 -65 -70 -29 -50 -51 -71
-51 -48 0 4 -34 28 -75 53 -41 24 -75 49 -75 55 0 8 67 111 86 133 1 2 32 -13
68 -33 35 -20 71 -36 78 -36 8 0 46 38 86 84 79 94 162 167 247 218 58 34 57
31 38 90 -5 18 14 29 72 44 20 5 27 1 35 -21 8 -22 15 -26 33 -21 12 3 60 13
107 22 107 20 110 21 110 34 0 16 -99 118 -120 125 -26 8 -204 -30 -307 -66
-407 -142 -750 -526 -843 -944 -32 -140 -32 -339 -1 -485 122 -572 569 -1018
1128 -1126 115 -22 319 -22 435 0 174 33 366 113 523 218 44 30 95 60 114 68
49 20 122 79 236 191 55 53 111 100 125 103 14 3 -6 2 -45 -1 -105 -8 -123 -6
-170 22 -71 41 -132 109 -140 155 -4 26 -12 40 -22 40 -12 0 -14 -7 -9 -32 5
-28 1 -37 -33 -72 -35 -36 -40 -47 -42 -95 -3 -52 -2 -54 36 -83 22 -16 43
-36 48 -44 15 -26 -3 -111 -34 -159 -64 -100 -342 -243 -569 -291 -116 -25
-343 -25 -460 -1 -427 90 -784 369 -976 762 -158 325 -188 638 -88 937 76 229
352 546 606 696 85 50 236 115 293 127 17 3 -1 -7 -40 -23 -254 -104 -426
-238 -567 -442 -150 -217 -204 -384 -215 -660 -7 -198 6 -269 87 -474 87 -219
196 -386 341 -521 127 -117 329 -228 504 -276 100 -27 347 -38 452 -20 70 13
177 41 171 46 -2 1 -39 -4 -83 -12 -101 -19 -330 -21 -415 -4 -165 32 -355
111 -475 196 -81 57 -229 213 -288 302 -27 40 -73 125 -103 190 -58 125 -60
128 -111 213 -18 30 -38 70 -44 90 -15 48 -22 291 -11 365 l10 60 1 -87 c1
-81 3 -89 33 -129 18 -23 52 -55 75 -71 l41 -30 46 17 c51 20 67 14 48 -15
-14 -23 0 -27 17 -6 12 14 5 46 -9 46 -16 0 -23 134 -11 231 30 244 135 480
203 454 32 -12 30 -37 -6 -74 -18 -20 -41 -50 -49 -66 -17 -34 -62 -199 -70
-257 -7 -45 10 -58 72 -58 52 0 63 -20 59 -103 l-3 -62 -48 -15 c-26 -8 -50
-23 -53 -32 -3 -10 5 -54 17 -99 48 -178 122 -314 242 -444 72 -79 118 -112
262 -188 60 -32 99 -55 85 -52 -32 8 -192 85 -249 121 -24 15 -41 22 -37 16
13 -22 158 -105 233 -134 42 -16 95 -31 117 -33 23 -2 57 -8 76 -14 50 -16
191 -14 290 4 222 39 378 123 541 292 119 123 178 222 225 380 23 76 27 107
28 228 1 145 -15 259 -40 292 -13 17 -15 17 -25 1 -10 -18 -45 -24 -65 -10
-31 20 -45 91 -21 110 6 5 40 12 74 14 42 3 69 10 83 23 11 10 22 16 24 14 2
-2 17 -47 34 -99 42 -132 56 -241 49 -377 -5 -97 -4 -114 10 -121 15 -9 15
-15 -1 -77 -16 -65 -14 -95 4 -65 40 65 48 406 12 551 -33 134 -68 216 -125
293 -29 39 -73 98 -97 130 -50 69 -168 195 -222 237 -35 29 -39 29 -60 15 -12
-9 -29 -16 -37 -16 -20 0 -141 80 -141 93 0 5 43 74 96 153 58 86 94 150 90
159 -14 38 -220 123 -376 156 -141 30 -403 32 -565 5 -239 -39 -462 -128 -660
-261 -145 -98 -138 -92 -169 -157 -21 -44 -45 -72 -104 -122 -42 -35 -87 -75
-100 -88 l-22 -25 20 -18 c11 -10 20 -22 20 -26 0 -10 -71 -129 -77 -129 -2 0
-2 4 2 9 3 6 -20 38 -50 72 -55 61 -55 62 -39 88 143 225 345 422 599 582 213
134 466 219 727 244 57 6 71 11 88 33 32 40 22 62 -55 120 l-70 54 -65 -6
c-82 -6 -232 -44 -361 -92 -119 -44 -150 -65 -147 -103 1 -15 -18 -69 -46
-125 -41 -85 -53 -100 -93 -124 -217 -128 -435 -336 -567 -540 -90 -138 -181
-375 -211 -548 -23 -133 -16 -153 10 -28 24 120 57 227 87 287 19 39 45 52 34
17 -3 -11 -9 -28 -12 -39 -5 -15 3 -22 39 -36 25 -9 50 -14 55 -11 5 3 -1 -28
-14 -69 -13 -42 -24 -83 -25 -93 0 -10 -3 -12 -6 -5 -2 7 3 37 11 67 21 71 21
72 -11 84 -16 5 -35 13 -44 17 -21 8 -41 -40 -80 -199 -40 -164 -39 -186 8
-222 100 -76 99 -93 -6 -157 -77 -47 -80 -48 -155 -46 -63 2 -80 -1 -97 -17
-35 -31 -50 -72 -56 -147 -3 -40 -10 -77 -15 -84 -5 -6 -28 -15 -51 -18 -86
-15 -89 -23 -59 -180 l18 -90 54 0 c49 0 55 -2 61 -25 13 -47 9 -55 -41 -77
l-49 -21 25 -74 c35 -105 34 -104 82 -79 l41 21 16 -29 c19 -39 20 -38 -12
-55 -55 -30 -55 -29 -37 -72 9 -21 17 -40 19 -42 2 -2 21 6 44 17 22 12 43 21
45 21 3 0 15 -19 27 -42 l21 -42 -23 -19 c-13 -11 -33 -25 -43 -33 -17 -11
-18 -17 -8 -39 14 -31 23 -31 72 1 21 14 43 23 48 20 5 -3 22 -24 38 -47 l28
-42 -49 -42 c-46 -40 -48 -45 -37 -67 7 -12 27 -38 43 -56 l30 -34 40 29 c22
15 46 32 54 38 10 7 22 2 45 -20 44 -42 47 -62 14 -96 -30 -31 -28 -50 9 -73
13 -8 23 -4 47 19 28 27 32 28 47 13 15 -15 14 -19 -11 -48 -42 -50 -27 -70
24 -30 33 26 52 25 80 -5 24 -26 24 -26 6 -60 -18 -34 -19 -36 -1 -55 25 -28
37 -25 63 15 24 37 29 37 75 2 22 -18 22 -20 -8 -67 -33 -53 -14 -60 26 -10
l32 40 40 -23 c50 -28 54 -39 27 -77 -21 -29 -22 -29 -50 -15 -16 8 -32 15
-35 15 -14 0 8 -21 38 -36 31 -17 31 -17 62 20 l31 37 26 -21 c26 -20 26 -22
13 -60 -13 -37 -13 -40 8 -55 33 -23 55 -18 72 15 18 35 34 37 65 12 21 -17
22 -21 9 -55 -14 -40 -14 -42 18 -51 19 -6 25 -1 37 28 17 40 19 41 65 25 31
-11 32 -13 26 -50 -6 -35 -4 -40 20 -49 41 -15 65 -12 65 8 0 10 6 26 13 36
12 16 18 16 56 6 l44 -11 -6 -50 c-3 -27 -3 -49 1 -49 4 -1 26 -5 50 -9 42 -8
43 -8 70 30 18 25 35 39 50 39 24 0 44 -31 24 -38 -22 -7 -14 -49 11 -56 42
-11 57 -7 57 17 0 40 12 67 29 67 25 0 41 -20 41 -52 l0 -29 62 3 61 3 11 40
c11 39 13 40 58 43 43 3 46 1 56 -27 10 -28 15 -31 50 -31 22 0 54 3 71 6 32
7 32 7 29 62 l-3 55 100 22 c55 12 124 29 153 38 l54 16 15 -39 c18 -46 22
-47 81 -20 43 19 44 21 37 58 -7 44 4 58 51 68 25 5 32 1 47 -25 22 -37 25
-37 80 -10 86 44 88 47 71 81 -18 34 -10 49 40 75 29 15 31 15 52 -13 l23 -28
81 49 c150 91 400 297 400 330 0 7 -11 20 -25 29 -14 10 -31 28 -37 41 -10 22
-5 31 52 94 53 61 65 69 81 61 23 -13 26 2 4 20 -20 17 -18 30 8 62 21 26 25
27 61 17 34 -9 41 -8 63 13 33 29 83 107 83 127 0 9 -28 31 -66 51 -36 19 -70
42 -75 52 -6 11 2 47 27 115 51 140 64 184 90 303 12 58 23 93 23 79 1 -25 3
-26 54 -21 28 3 55 10 59 16 25 39 33 441 9 470 -10 11 -14 45 -15 104 0 48
-2 76 -4 62 -3 -14 -13 22 -24 85 -21 121 -63 277 -108 399 -34 94 -35 93 62
142 67 34 67 34 79 13 11 -22 0 -38 -27 -39 -6 0 -23 -9 -38 -21 l-26 -21 22
-39 c21 -37 43 -55 32 -24 -4 10 8 21 40 37 25 12 46 27 46 32 0 6 -13 34 -29
61 -16 28 -48 84 -71 125 -61 110 -162 259 -249 369 -97 121 -106 129 -120
103 -6 -11 -18 -23 -27 -26 -15 -6 -15 -5 0 18 9 14 16 31 16 39 0 13 -50 67
-63 67 -3 0 -14 -14 -23 -31 l-16 -32 -35 35 -35 35 31 44 32 43 -41 40 -41
41 -28 -32 c-15 -18 -32 -33 -38 -33 -19 0 -178 132 -175 145 1 8 -16 27 -38
41 -36 24 -41 31 -35 53 14 57 11 65 -28 86 l-38 20 -23 -29 c-21 -25 -26 -27
-46 -16 -19 10 -21 17 -16 52 9 57 -2 67 -34 28 -23 -28 -29 -31 -48 -21 -21
11 -21 12 -5 46 9 19 21 35 25 35 5 0 6 5 3 10 -13 21 -34 9 -45 -25 -12 -36
-18 -39 -58 -28 -17 4 -22 11 -18 24 3 11 9 27 12 37 4 14 -4 22 -38 35 -26
11 -44 13 -46 7 -2 -5 -11 -19 -21 -31 -14 -17 -24 -20 -44 -15 -29 7 -35 32
-17 66 8 16 5 20 -25 30 -42 14 -51 9 -60 -30 -6 -26 -11 -30 -42 -30 l-35 0
4 45 c3 48 -3 55 -48 55 -19 0 -28 -9 -41 -41 l-16 -42 -60 7 c-33 3 -115 6
-183 6 l-122 0 -52 41 c-68 54 -88 45 -29 -14 25 -26 44 -49 41 -52 -3 -3 -22
-5 -42 -5 -40 0 -53 16 -65 84 -4 20 -12 35 -19 35 -6 -1 -24 -4 -39 -6z m-41
-539 c6 -34 8 -35 38 -30 97 16 129 18 122 7 -4 -6 -19 -11 -34 -11 -47 0
-175 -28 -274 -60 -92 -29 -128 -37 -115 -24 3 4 0 22 -8 41 -17 41 -18 43 -7
43 5 0 16 -16 25 -36 11 -21 23 -34 31 -31 42 17 180 57 192 57 13 0 14 8 9
40 -9 51 11 55 21 4z m539 -319 c117 -24 304 -89 292 -101 -3 -3 -47 10 -99
29 -98 37 -241 71 -347 83 -75 8 -76 13 21 -115 l63 -85 90 -22 c136 -33 209
-64 213 -92 4 -27 4 -27 -83 3 -40 13 -109 33 -155 42 l-82 18 -52 85 c-28 47
-64 107 -80 134 l-29 49 84 -6 c46 -3 120 -13 164 -22z m1425 -61 c11 -12 10
-18 -3 -32 -16 -15 -18 -15 -34 0 -13 14 -14 20 -3 32 7 9 16 16 20 16 4 0 13
-7 20 -16z m-1365 -123 c24 -6 46 -11 49 -11 3 0 15 17 26 38 l20 37 -6 -42
c-5 -35 -3 -43 15 -52 18 -10 23 -8 42 21 l21 33 -6 -36 c-6 -31 -3 -39 19
-53 24 -16 25 -16 47 19 13 19 27 35 31 35 8 0 -4 -27 -30 -67 l-14 -22 -33
23 c-31 21 -112 50 -213 76 -48 12 -48 13 -30 61 l12 34 3 -41 c3 -40 5 -42
47 -53z m282 83 c-3 -3 -12 -4 -19 -1 -8 3 -5 6 6 6 11 1 17 -2 13 -5z m-677
-120 c22 -20 38 -39 35 -42 -3 -3 -23 11 -44 32 -37 36 -42 38 -88 33 -33 -4
-40 -3 -23 3 51 17 79 11 120 -26z m-165 6 c-11 -5 -27 -9 -35 -9 -9 0 -8 4 5
9 11 5 27 9 35 9 9 0 8 -4 -5 -9z m2085 -49 c0 -27 -19 -36 -37 -18 -18 18 -9
37 18 37 12 0 19 -7 19 -19z m100 -171 c0 -9 -11 -22 -25 -28 -34 -15 -31 -17
-45 19 -12 29 -12 33 11 50 24 18 24 18 42 -2 9 -12 17 -29 17 -39z m-1810 11
c57 -41 62 -101 10 -152 -40 -40 -91 -40 -131 0 -35 36 -38 81 -9 129 33 53
76 61 130 23z m-632 -6 c8 -18 8 -26 0 -31 -12 -8 -38 22 -38 43 0 22 26 14
38 -12z m379 19 c-3 -3 -12 -4 -19 -1 -8 3 -5 6 6 6 11 1 17 -2 13 -5z m343
-56 c0 -32 -23 -92 -38 -102 -6 -3 -4 7 4 23 16 33 21 83 10 121 -7 24 -6 24
8 6 9 -11 16 -33 16 -48z m-430 32 c-8 -5 -19 -10 -25 -10 -5 0 -3 5 5 10 8 5
20 10 25 10 6 0 3 -5 -5 -10z m-348 -38 c13 -22 14 -32 6 -40 -19 -19 -32 -14
-51 20 -14 25 -15 33 -5 39 22 14 33 10 50 -19z m1078 -37 c11 -13 8 -15 -14
-13 -26 2 -32 9 -19 21 10 11 19 8 33 -8z m-812 -35 c14 -20 22 -48 22 -73 0
-25 6 -44 16 -52 14 -10 10 -16 -37 -44 l-53 -33 -53 55 c-77 80 -70 129 27
171 44 19 50 17 78 -24z m2000 0 c6 -16 7 -30 3 -30 -8 0 -31 44 -31 61 0 19
18 -1 28 -31z m-942 15 c-26 -19 -42 -19 -26 0 7 8 20 15 29 15 13 -1 13 -3
-3 -15z m-1396 -30 c11 10 20 15 20 10 0 -11 -120 -145 -130 -145 -5 0 -23 12
-40 26 -27 24 -30 29 -17 41 11 12 19 12 35 4 28 -15 35 -14 66 10 24 19 25
22 11 42 -23 33 -18 43 10 17 24 -23 25 -23 45 -5z m1208 1 c15 -8 35 -22 44
-33 16 -17 15 -22 -12 -78 -16 -33 -42 -73 -58 -88 l-29 -28 -64 48 -64 48 30
59 c17 32 39 64 50 72 24 18 68 18 103 0z m242 -6 c0 -5 -9 -14 -20 -20 -22
-12 -27 -1 -8 18 14 14 28 16 28 2z m29 -56 c-6 -8 -18 -14 -27 -14 -13 0 -12
3 3 20 20 22 43 17 24 -6z m-1389 -50 c-34 -37 -70 -80 -80 -96 -13 -21 -19
-25 -23 -15 -3 9 25 45 75 96 44 44 82 81 85 81 3 0 -23 -30 -57 -66z m809 40
c29 -8 51 -17 49 -19 -5 -5 -108 25 -108 31 0 6 1 6 59 -12z m-59 -26 c237
-57 454 -282 504 -522 18 -85 28 -196 17 -178 -5 8 -11 -19 -14 -65 -8 -98
-39 -211 -80 -288 -43 -80 -138 -179 -231 -239 -82 -54 -93 -70 -24 -35 137
69 247 181 308 314 52 111 72 200 76 335 3 109 5 116 29 137 25 22 141 64 174
62 18 0 -19 -18 -94 -45 -81 -28 -95 -49 -95 -141 0 -69 -9 -154 -26 -235 -4
-22 0 -29 25 -42 16 -9 46 -16 65 -16 43 0 124 -34 133 -56 6 -16 -11 -58 -53
-132 -24 -41 -25 -42 -53 -28 -15 8 -47 31 -70 50 -33 27 -52 36 -81 36 -42 0
-58 -12 -112 -81 -20 -25 -60 -64 -90 -86 -52 -41 -170 -105 -185 -101 -4 1
-32 -6 -62 -15 -77 -24 -226 -23 -325 3 -125 32 -208 81 -311 184 -99 99 -149
185 -197 336 -47 153 -23 361 64 538 61 123 222 254 373 302 92 30 230 33 335
8z m435 -8 c-9 -16 -18 -30 -21 -30 -2 0 2 14 11 30 9 17 18 30 21 30 2 0 -2
-13 -11 -30z m255 1 c0 -13 -29 -35 -37 -28 -7 8 15 37 28 37 5 0 9 -4 9 -9z
m878 -33 c17 -17 15 -63 -2 -78 -8 -6 -25 -10 -38 -8 -29 4 -36 34 -8 41 11 3
20 10 20 16 0 17 -31 13 -52 -6 -22 -19 -22 -56 -4 -200 9 -76 10 -103 1 -103
-14 0 -50 259 -40 289 15 47 93 79 123 49z m-825 -32 c3 -8 0 -22 -8 -32 -11
-16 -15 -16 -29 -5 -15 13 -15 15 0 32 20 23 30 24 37 5z m47 -72 c0 -8 -9
-14 -20 -14 -18 0 -19 3 -10 20 12 22 30 18 30 -6z m-1920 -50 c0 -2 -9 0 -20
6 -11 6 -20 13 -20 16 0 2 9 0 20 -6 11 -6 20 -13 20 -16z m1681 -12 c28 -43
18 -41 -16 4 -16 20 -23 35 -16 33 7 -3 21 -19 32 -37z m1054 -39 c-3 -25 -9
-42 -12 -39 -3 3 -2 31 2 63 5 32 10 50 13 39 2 -10 1 -38 -3 -63z m-2362 -9
c20 -13 37 -27 37 -29 0 -3 -14 -33 -30 -66 l-31 -60 -52 7 c-53 7 -91 31
-100 64 -6 25 33 92 63 107 30 15 63 8 113 -23z m-492 -31 c-12 -20 -14 -14
-5 12 4 9 9 14 11 11 3 -2 0 -13 -6 -23z m1971 10 c18 -16 18 -18 -14 -33 -31
-15 -33 -19 -33 -67 0 -63 -13 -79 -86 -103 -30 -10 -54 -18 -54 -17 -1 1 -14
35 -29 74 -15 40 -26 80 -24 90 5 30 65 56 122 55 28 -1 58 3 66 8 21 14 31
12 52 -7z m-1832 -39 c31 -13 43 -14 54 -5 12 10 13 7 4 -23 -9 -29 -14 -34
-29 -26 -23 13 -39 13 -39 0 0 -6 11 -15 25 -20 15 -6 23 -15 19 -24 -4 -12
-15 -10 -62 11 -31 14 -59 27 -60 29 -2 1 1 19 8 38 13 40 23 43 80 20z m-164
-40 c-8 -21 -15 -34 -15 -28 -1 15 20 76 25 71 2 -2 -2 -21 -10 -43z m329 -72
c-3 -27 -2 -60 5 -76 6 -16 8 -31 6 -34 -3 -3 -10 8 -16 24 -11 27 -5 134 7
134 3 0 2 -21 -2 -48z m-718 -4 c-3 -7 -5 -2 -5 12 0 14 2 19 5 13 2 -7 2 -19
0 -25z m359 -44 c-8 -38 -15 -59 -15 -47 -1 26 19 126 25 121 2 -2 -3 -35 -10
-74z m503 -29 c-39 -143 -32 -286 23 -433 20 -53 20 -57 3 -67 -9 -5 -36 -22
-59 -37 -36 -24 -43 -25 -56 -12 -11 11 -12 19 -4 32 8 12 7 28 -3 60 -20 56
-10 88 32 114 39 22 39 23 24 101 -9 45 -8 74 5 153 14 83 42 171 52 162 1 -2
-6 -35 -17 -73z m-284 45 c3 -5 -3 -10 -14 -10 -12 0 -21 5 -21 10 0 6 6 10
14 10 8 0 18 -4 21 -10z m-588 -32 c-3 -8 -6 -5 -6 6 -1 11 2 17 5 13 3 -3 4
-12 1 -19z m573 -8 c0 -5 -7 -10 -15 -10 -8 0 -15 5 -15 10 0 6 7 10 15 10 8
0 15 -4 15 -10z m-42 -21 c2 -5 12 -9 23 -9 10 0 19 -5 19 -11 0 -8 -11 -9
-31 -5 -17 3 -49 6 -69 6 -34 0 -37 2 -33 21 5 18 11 19 47 13 22 -3 43 -10
44 -15z m1876 -51 c10 -37 7 -282 -4 -298 -12 -19 -12 -25 -14 162 -1 149 4
187 18 136z m-1878 2 c24 0 34 -5 34 -15 0 -12 -14 -15 -65 -15 -60 0 -65 2
-65 21 0 19 4 21 31 15 17 -3 47 -6 65 -6z m0 -60 c19 0 34 -4 34 -10 0 -11
-88 -14 -114 -4 -29 11 -17 27 15 20 17 -3 47 -6 65 -6z m1984 -113 c0 -48
-12 -73 -29 -62 -11 6 -6 86 6 108 10 18 23 -7 23 -46z m-183 -141 c37 -24 83
-47 100 -51 48 -10 54 -28 6 -19 -45 8 -211 114 -179 114 3 0 36 -20 73 -44z
m1133 -75 c0 -14 -44 -43 -154 -100 -112 -59 -149 -64 -154 -18 -3 24 2 30 45
49 55 25 219 77 246 77 9 1 17 -3 17 -8z m-1215 -207 c30 -20 55 -41 55 -46 0
-8 -80 43 -114 74 -24 21 10 5 59 -28z m1000 -24 c16 -18 16 -26 5 -82 -22
-114 -112 -369 -126 -356 -2 2 14 51 35 108 54 147 87 295 71 315 -17 20 -59
19 -82 -2 -17 -15 -18 -15 -18 0 0 10 9 26 20 37 16 16 24 18 49 9 16 -6 37
-19 46 -29z m-2206 -16 c-15 -18 -118 -68 -126 -61 -3 3 15 18 39 32 23 15 52
33 63 40 25 16 40 8 24 -11z m-996 -18 c6 -15 -1 -19 -61 -31 -29 -6 -33 -5
-30 11 2 11 15 21 33 25 47 10 53 10 58 -5z m1007 -31 c-23 -28 -80 -57 -98
-50 -16 6 -16 8 2 21 11 8 27 14 35 14 9 0 27 9 41 20 28 21 40 18 20 -5z
m-1000 -30 c0 -8 -3 -15 -7 -15 -5 0 -25 -4 -45 -9 -28 -7 -38 -5 -42 5 -3 9
6 17 27 23 48 14 67 13 67 -4z m1149 -92 c-13 -36 -50 -95 -55 -90 -7 7 47
117 56 117 6 0 5 -12 -1 -27z m1897 -40 c5 -28 21 -29 54 -3 31 24 41 25 33 3
-20 -56 -71 -70 -100 -27 l-16 26 -14 -26 c-8 -14 -16 -26 -19 -26 -2 0 -1 8
5 18 5 9 17 35 26 57 14 32 19 36 22 20 2 -11 6 -30 9 -42z m-1194 -26 c46
-89 70 -93 161 -23 26 20 47 32 47 27 0 -22 -132 -101 -169 -101 -11 0 -35 -9
-54 -20 -43 -25 -102 -29 -124 -8 -19 20 -54 121 -45 129 4 4 18 10 30 14 23
7 23 7 7 -19 -48 -73 55 -155 115 -91 18 20 22 31 17 62 -7 40 -38 79 -56 69
-7 -5 -3 -17 11 -37 18 -24 20 -34 12 -57 -10 -30 -46 -41 -70 -22 -17 15 -18
53 -3 81 12 22 69 61 83 56 5 -2 22 -29 38 -60z m-559 46 c4 -3 0 -14 -8 -23
-8 -9 -18 -30 -21 -48 -5 -26 -1 -36 24 -62 37 -36 65 -38 97 -5 30 29 31 50
5 92 l-19 32 22 -8 c27 -10 47 -46 47 -84 0 -35 -49 -87 -82 -87 -43 1 -104
36 -117 68 -18 42 2 132 28 132 10 0 21 -3 24 -7z m-1229 -28 c5 -15 -1 -19
-61 -40 -25 -9 -12 25 15 39 35 19 39 19 46 1z m1294 -10 c-3 -14 -1 -28 3
-31 15 -9 10 -54 -7 -61 -39 -15 -74 42 -55 90 8 20 17 27 37 27 23 0 26 -3
22 -25z m132 -159 c-12 -12 -13 29 -2 100 l7 49 3 -69 c2 -39 -2 -74 -8 -80z
m-1400 110 c0 -7 -16 -20 -35 -29 -43 -21 -42 -20 -49 -2 -3 10 7 21 32 34 38
20 52 19 52 -3z m2301 -51 c76 -66 100 -72 168 -45 l52 20 -26 -34 c-43 -57
-235 -216 -260 -216 -4 0 -4 10 -1 23 4 12 11 47 16 77 10 53 9 58 -27 127
-30 60 -34 74 -23 87 20 25 35 19 101 -39z m584 -45 c-9 -16 -18 -30 -20 -30
-6 0 6 32 18 48 17 22 18 13 2 -18z m-2805 -29 c14 -27 14 -26 -27 -51 -35
-21 -38 -21 -50 -4 -18 24 -17 26 20 51 40 27 44 27 57 4z m1383 -18 c-18 -2
-48 -2 -65 0 -18 2 -4 4 32 4 36 0 50 -2 33 -4z m1528 -81 c-18 -34 -13 -49
20 -61 48 -16 64 -14 79 14 16 29 27 31 52 8 32 -28 17 -84 -21 -82 -25 1
-143 62 -154 80 -8 13 -6 24 7 44 20 30 33 28 17 -3z m-2801 -43 c12 -22 4
-32 -48 -60 -19 -11 -25 -10 -39 4 -16 16 -16 18 2 31 11 8 29 21 40 30 27 20
32 20 45 -5z m145 -150 c8 -12 -23 -49 -41 -49 -19 0 -23 23 -6 43 17 19 38
22 47 6z m46 -123 c-52 -53 -51 -69 6 -136 30 -36 33 -42 13 -29 -38 25 -90
97 -90 127 0 17 14 41 42 69 38 38 44 41 57 28 14 -13 10 -20 -28 -59z m1930
20 c-28 -29 -32 -38 -26 -68 6 -30 3 -37 -22 -53 -25 -17 -27 -17 -14 -1 9 10
14 35 13 59 -2 38 2 45 36 69 49 36 53 35 13 -6z m-1751 -71 c9 -11 8 -20 -10
-45 -24 -34 -29 -35 -53 -17 -15 11 -15 14 4 45 23 35 40 40 59 17z m-760 -25
l22 -30 -44 -20 c-56 -26 -85 -25 -93 1 -8 23 -8 23 37 55 43 30 53 30 78 -6z
m2363 -29 c15 -26 15 -30 2 -41 -13 -11 -20 -9 -40 10 -27 26 -32 46 -12 53
24 10 33 7 50 -22z m-1503 -6 c17 -21 -25 -81 -46 -64 -18 15 -18 29 2 57 18
26 27 27 44 7z m1285 -97 c6 -24 3 -35 -11 -45 -27 -20 -39 -16 -52 20 -11 28
-10 34 5 45 30 21 51 14 58 -20z m921 21 c8 -14 -69 -93 -178 -181 -48 -39
-86 -74 -83 -78 3 -5 -29 -30 -71 -56 -61 -38 -78 -44 -85 -33 -14 23 -12 25
64 72 90 57 254 192 298 246 34 43 43 48 55 30z m-1160 -94 c8 -31 6 -33 -33
-41 -27 -5 -31 -3 -37 20 -9 35 -1 46 34 46 23 0 31 -5 36 -25z m-132 -11 c18
-46 -12 -63 -32 -19 -16 34 -15 35 7 35 10 0 22 -7 25 -16z m-119 -24 c0 -30
-35 -40 -54 -16 -20 24 -6 48 26 44 22 -2 28 -8 28 -28z"/>
<path d="M2501 3494 c-26 -33 -27 -58 -1 -84 43 -43 110 -14 110 48 0 59 -72
83 -109 36z m85 -26 c9 -29 -20 -57 -44 -42 -24 15 -27 45 -7 60 21 16 42 8
51 -18z"/>
<path d="M2080 3397 c-34 -17 -40 -77 -11 -106 42 -42 111 -12 111 47 0 33 -8
45 -37 61 -27 14 -32 14 -63 -2z m68 -54 c2 -25 -1 -33 -18 -38 -26 -8 -50 10
-50 40 0 29 9 37 40 33 20 -2 26 -9 28 -35z"/>
<path d="M2937 3352 c-10 -10 -17 -35 -17 -55 0 -33 4 -39 36 -54 32 -16 38
-16 62 -2 33 18 41 68 17 105 -19 30 -74 33 -98 6z m81 -44 c-4 -26 -30 -43
-52 -35 -21 8 -21 53 1 66 25 13 55 -5 51 -31z"/>
<path d="M2378 3254 c-213 -51 -395 -241 -455 -474 -18 -73 -22 -256 -6 -305
8 -23 10 -1 10 95 1 217 57 363 193 501 181 183 426 220 670 102 103 -49 229
-176 283 -283 154 -306 68 -638 -213 -823 -81 -53 -69 -56 18 -4 30 18 84 64
122 103 106 112 155 231 166 409 20 309 -195 601 -501 680 -72 18 -210 18
-287 -1z"/>
<path d="M2438 3042 c-225 -61 -365 -304 -299 -519 65 -216 277 -360 476 -326
88 15 146 45 220 114 103 97 156 243 135 375 -13 80 -32 125 -85 200 -101 141
-276 202 -447 156z m234 -28 c26 -9 50 -19 52 -23 3 -4 -21 1 -52 12 -38 13
-85 20 -142 20 -58 1 -76 3 -55 8 41 10 140 2 197 -17z m23 -58 c70 -32 143
-105 181 -181 26 -54 29 -70 29 -155 0 -83 -3 -102 -28 -151 -34 -70 -119
-152 -194 -186 -230 -105 -509 105 -490 371 6 87 32 151 88 211 110 119 274
155 414 91z m165 -83 c0 -8 -9 0 -50 45 l-45 47 48 -45 c26 -24 47 -45 47 -47z
m77 -230 c-3 -10 -5 -2 -5 17 0 19 2 27 5 18 2 -10 2 -26 0 -35z m-780 -45
c-2 -18 -4 -6 -4 27 0 33 2 48 4 33 2 -15 2 -42 0 -60z m780 -25 c-3 -10 -5
-2 -5 17 0 19 2 27 5 18 2 -10 2 -26 0 -35z"/>
<path d="M2535 2860 c-4 -7 -3 -16 3 -22 14 -14 45 -2 40 15 -6 16 -34 21 -43
7z"/>
<path d="M2475 2784 c-99 -51 -141 -163 -96 -259 77 -167 313 -145 361 34 31
117 -64 241 -184 241 -28 0 -64 -7 -81 -16z m171 -49 c41 -32 69 -101 60 -151
-11 -55 -71 -114 -123 -121 -56 -7 -86 1 -128 38 -111 98 -32 281 114 264 25
-3 58 -16 77 -30z"/>
<path d="M2474 2696 c-41 -41 -46 -92 -14 -144 44 -72 156 -68 195 8 42 82
-14 170 -111 170 -28 0 -44 -8 -70 -34z m149 -37 c41 -51 -1 -128 -70 -129
-85 -1 -111 118 -34 156 30 15 80 2 104 -27z"/>
<path d="M2296 2633 c-13 -14 -5 -33 14 -33 11 0 20 6 20 14 0 15 -24 28 -34
19z"/>
<path d="M2794 2616 c-8 -22 3 -33 18 -18 9 9 9 15 0 24 -9 9 -13 7 -18 -6z"/>
<path d="M2540 2360 c0 -11 6 -20 13 -20 19 0 27 10 20 26 -8 21 -33 17 -33
-6z"/>
<path d="M1981 2555 c-2 -98 65 -262 144 -353 62 -70 157 -136 240 -167 78
-30 216 -45 238 -26 8 6 53 26 99 45 110 43 185 93 253 170 87 97 147 231 144
321 -1 20 -6 9 -15 -34 -43 -196 -194 -374 -372 -437 -88 -31 -221 -33 -313
-4 -192 59 -356 247 -403 461 -13 59 -14 61 -15 24z"/>
<path d="M3276 2288 c-22 -32 -20 -61 7 -86 46 -43 107 -17 107 45 0 16 -8 37
-18 46 -27 25 -78 22 -96 -5z m79 -43 c0 -25 -4 -30 -24 -30 -28 0 -47 25 -38
49 5 12 16 16 34 14 24 -3 28 -8 28 -33z"/>
<path d="M1791 3023 c-23 -28 -21 -54 7 -85 34 -40 112 -10 112 43 0 65 -80
93 -119 42z m73 -6 c11 -8 17 -23 14 -38 -2 -19 -9 -24 -33 -24 -24 0 -31 5
-33 23 -3 22 13 52 27 52 4 0 15 -6 25 -13z"/>
<path d="M3224 2945 c-26 -39 -6 -75 41 -75 28 0 38 5 47 25 15 32 -12 75 -47
75 -15 0 -31 -10 -41 -25z"/>
<path d="M1843 2429 c-50 -19 -46 -77 8 -99 36 -15 51 -6 40 23 -5 12 -13 36
-18 53 -7 27 -11 31 -30 23z"/>
<path d="M3725 820 c-3 -6 1 -7 9 -4 18 7 21 14 7 14 -6 0 -13 -4 -16 -10z"/>
<path d="M2651 4466 c-7 -8 -21 -51 -32 -97 -18 -74 -18 -84 -4 -105 21 -32
40 -40 110 -49 33 -3 88 -13 122 -22 85 -21 190 -4 238 38 60 53 63 114 8 142
-75 38 -330 106 -399 107 -17 0 -37 -6 -43 -14z m213 -188 c-6 -34 -4 -44 12
-56 18 -13 18 -14 -5 -7 -13 4 -57 13 -98 20 -88 15 -112 30 -33 21 30 -4 64
-8 74 -9 15 -2 22 7 29 36 12 51 29 47 21 -5z"/>
<path d="M2148 4443 c7 -3 16 -2 19 1 4 3 -2 6 -13 5 -11 0 -14 -3 -6 -6z"/>
<path d="M1985 4407 c-278 -82 -520 -227 -748 -447 -177 -170 -310 -344 -372
-485 -14 -30 -28 -55 -33 -55 -4 0 -29 13 -55 30 l-47 30 15 37 c9 21 34 69
56 108 22 38 34 63 26 55 -26 -26 -106 -174 -109 -200 -3 -21 6 -30 57 -57 95
-52 106 -47 192 77 102 149 276 334 396 423 35 27 34 33 -8 41 -41 8 -72 -6
-137 -63 -69 -61 -71 -50 -3 20 228 232 520 404 840 495 44 12 71 23 60 23
-11 0 -69 -15 -130 -32z"/>
<path d="M1281 4385 l-61 -45 16 -40 16 -40 -31 -26 c-35 -29 -38 -39 -16 -48
10 -3 15 -1 13 7 -3 12 57 71 124 121 44 33 40 51 -7 42 -48 -9 -54 10 -14 44
52 44 29 35 -40 -15z"/>
<path d="M3681 4392 l-33 -28 53 -48 c45 -40 54 -45 66 -33 8 8 17 32 20 54 5
37 3 41 -30 61 -19 12 -36 22 -38 22 -2 0 -19 -13 -38 -28z m77 -21 c9 -5 11
-17 6 -35 -9 -37 -16 -38 -49 -12 -25 20 -28 26 -16 40 15 17 38 20 59 7z"/>
<path d="M3237 4258 c-13 -13 -39 -50 -57 -83 -29 -54 -30 -58 -9 -38 25 23
162 83 190 83 24 0 188 -117 294 -210 53 -46 115 -96 138 -109 l42 -25 -32 39
c-83 105 -230 228 -377 317 -93 56 -148 64 -189 26z"/>
<path d="M1140 4145 c-7 -9 -10 -18 -7 -22 8 -7 37 15 37 28 0 14 -16 11 -30
-6z"/>
<path d="M1051 4093 c-27 -32 -29 -39 -17 -51 12 -12 20 -10 55 18 46 38 49
45 22 60 -27 14 -26 14 -60 -27z"/>
<path d="M3335 4118 c-28 -16 -35 -28 -35 -64 0 -33 29 -70 63 -83 12 -4 65
-6 117 -3 l96 4 -66 63 c-63 61 -115 95 -142 95 -7 0 -22 -6 -33 -12z"/>
<path d="M911 3975 c-52 -55 -57 -71 -42 -144 1 -2 8 2 16 9 9 7 15 29 15 53
0 36 6 48 47 89 30 30 41 48 32 48 -9 0 -39 -25 -68 -55z"/>
<path d="M2410 3885 c-14 -17 -5 -45 17 -52 16 -6 44 27 41 46 -4 22 -42 26
-58 6z"/>
<path d="M3850 3867 c0 -2 15 -16 33 -33 l32 -29 -29 33 c-28 30 -36 37 -36
29z"/>
<path d="M3359 3840 c-49 -8 -103 -33 -115 -51 -3 -6 4 -4 17 4 13 8 42 21 65
27 63 19 96 -3 261 -174 87 -90 133 -131 112 -102 -19 26 -76 88 -126 137
l-93 88 88 -6 c83 -5 89 -7 125 -42 21 -20 56 -59 78 -87 l39 -51 0 -145 c0
-144 0 -145 29 -185 17 -23 49 -50 76 -63 26 -13 56 -37 66 -54 22 -36 76
-196 85 -256 4 -22 11 -43 16 -46 16 -10 -29 204 -63 305 -16 47 -19 85 -19
274 1 121 -2 222 -5 225 -3 3 -5 -94 -5 -216 0 -147 -4 -222 -10 -222 -21 0
-88 40 -94 55 -3 9 -6 90 -6 180 l0 163 -37 49 c-138 180 -131 176 -285 193
-108 11 -132 11 -199 0z"/>
<path d="M773 3748 c-88 -117 -243 -394 -243 -435 0 -7 16 -21 36 -30 23 -11
34 -23 31 -33 -39 -129 -96 -335 -102 -367 -6 -40 -5 -43 17 -43 91 -1 91 -36
-3 -124 l-71 -67 3 -164 4 -164 39 -40 c22 -23 41 -39 43 -38 1 2 -4 35 -12
73 -8 40 -15 123 -15 196 l0 128 75 55 c63 47 75 61 81 93 28 163 64 291 121
435 19 49 33 90 31 91 -1 2 -18 -1 -35 -6 -24 -6 -38 -19 -53 -48 -23 -45 -51
-64 -81 -55 -17 6 -20 13 -15 36 4 24 0 33 -24 51 -17 12 -30 29 -30 39 0 27
130 276 194 373 65 97 71 125 9 44z m-141 -754 c-6 -49 -17 -61 -56 -56 -40 5
-43 13 -26 74 l11 37 37 -13 c32 -12 37 -17 34 -42z"/>
<path d="M3325 3706 c-51 -23 -105 -76 -105 -101 0 -7 11 -15 23 -19 30 -7
226 -223 285 -313 127 -194 202 -435 202 -648 0 -97 4 -105 50 -105 18 0 100
81 100 100 0 5 5 10 11 10 8 0 10 -44 6 -157 -5 -151 -8 -171 -52 -318 -3 -11
4 0 15 25 40 84 54 167 54 315 0 285 -85 567 -245 810 -65 97 -90 115 -118 81
-20 -24 -2 -46 38 -46 33 0 39 -5 73 -58 108 -170 198 -440 198 -594 0 -49
-25 -98 -49 -98 -16 0 -19 12 -25 87 -4 47 -12 112 -17 142 -25 141 -115 353
-208 491 -28 41 -51 79 -51 83 0 5 9 22 21 39 28 38 19 45 -18 14 l-30 -25
-51 52 c-29 29 -52 62 -52 73 0 12 -20 39 -45 63 -25 23 -42 47 -39 53 4 5 22
16 41 24 45 19 77 4 184 -89 99 -85 178 -184 283 -352 91 -146 125 -222 160
-356 83 -322 47 -666 -101 -963 -45 -92 -27 -74 25 24 73 137 126 338 138 520
11 180 -27 409 -97 575 -34 83 -162 293 -247 404 -71 94 -218 248 -254 267
-36 19 -44 18 -103 -10z"/>
<path d="M3107 3654 c-12 -13 -8 -42 8 -48 25 -9 46 5 43 28 -3 21 -37 34 -51
20z"/>
<path d="M4470 3157 c0 -9 14 -76 30 -149 17 -73 35 -180 42 -238 9 -87 15
-109 34 -131 23 -24 24 -32 24 -173 0 -171 -16 -331 -36 -363 -11 -17 -24 -23
-49 -23 -42 0 -43 -2 -80 -143 -14 -54 -39 -134 -55 -178 -17 -44 -30 -83 -30
-85 0 -5 64 -34 74 -34 14 0 106 228 106 263 0 12 -10 20 -30 24 -40 7 -43 15
-30 63 13 50 33 59 118 52 l62 -4 0 30 c0 17 3 37 6 45 3 10 -2 18 -16 22 -18
6 -21 13 -18 48 l3 42 48 3 c44 3 47 5 47 31 0 24 -5 28 -42 37 l-43 9 -7 135
c-10 175 -10 161 -9 265 1 119 -8 159 -37 163 -12 2 -22 10 -22 17 0 18 48 55
72 55 20 0 19 11 -7 100 -8 25 -19 64 -25 88 l-11 42 -29 -15 c-37 -19 -49
-19 -72 2 -16 15 -18 15 -18 0z m140 -133 c12 -29 6 -44 -17 -44 -9 0 -13 6
-9 15 3 8 1 15 -4 15 -6 0 -10 -7 -10 -15 0 -17 -16 -20 -25 -5 -10 16 4 48
23 53 30 8 32 7 42 -19z m-104 -1125 c3 -6 1 -16 -5 -22 -7 -7 -12 -6 -16 6
-4 9 -13 13 -22 10 -11 -4 -14 -2 -9 5 9 15 43 16 52 1z m-12 -50 c12 -11 -53
-179 -71 -186 -8 -3 -22 -2 -32 3 -16 8 -15 16 17 107 31 88 37 97 56 91 12
-3 25 -10 30 -15z"/>
<path d="M4441 2964 c0 -11 3 -14 6 -6 3 7 2 16 -1 19 -3 4 -6 -2 -5 -13z"/>
<path d="M4451 2914 c0 -11 3 -14 6 -6 3 7 2 16 -1 19 -3 4 -6 -2 -5 -13z"/>
<path d="M4462 2860 c0 -14 2 -19 5 -12 2 6 2 18 0 25 -3 6 -5 1 -5 -13z"/>
<path d="M1640 2630 c-24 -24 -25 -38 -4 -68 18 -27 55 -29 77 -4 22 24 21 55
-1 75 -25 22 -48 21 -72 -3z m60 -30 c0 -24 -26 -38 -42 -22 -16 16 -2 42 22
42 13 0 20 -7 20 -20z"/>
<path d="M1576 2374 c-9 -8 -16 -28 -16 -44 0 -54 59 -80 93 -42 50 55 -26
138 -77 86z m64 -39 c0 -31 -26 -43 -47 -22 -21 21 -9 47 22 47 20 0 25 -5 25
-25z"/>
<path d="M1468 2312 c-35 -21 -35 -44 1 -90 15 -20 39 -64 51 -97 38 -97 79
-174 144 -270 90 -132 250 -287 260 -253 2 7 7 21 10 31 3 9 14 17 25 17 25 0
71 55 71 84 0 34 -37 76 -66 76 -37 0 -67 -36 -60 -72 3 -18 2 -27 -4 -23 -12
7 -13 65 -2 82 4 6 20 18 35 26 l28 15 -56 63 c-76 87 -122 157 -164 254 l-37
82 -39 -18 c-22 -10 -50 -18 -63 -18 -33 -1 -70 41 -78 88 -7 45 -16 49 -56
23z m262 -210 c0 -11 -66 -42 -74 -35 -7 7 43 41 62 42 6 1 12 -3 12 -7z m30
-47 c0 -5 -75 -45 -85 -45 -16 0 -1 19 28 33 32 16 57 21 57 12z m50 -74 c0
-7 -72 -51 -84 -51 -18 0 -1 23 32 44 35 22 52 25 52 7z m20 -38 c-1 -14 -78
-64 -84 -54 -3 5 11 20 32 34 39 27 52 32 52 20z m158 -175 c21 -21 14 -57
-14 -70 -21 -10 -27 -9 -35 3 -10 16 -12 63 -2 72 10 11 38 8 51 -5z"/>
<path d="M3553 2108 c-5 -7 -28 -45 -51 -84 -44 -73 -53 -108 -27 -98 21 8
117 154 113 172 -4 20 -23 26 -35 10z"/>
<path d="M3132 1750 c-145 -92 -290 -144 -441 -157 -57 -5 -80 -11 -102 -30
-16 -14 -29 -32 -29 -41 0 -13 2 -13 14 3 11 16 17 17 29 7 12 -10 13 -20 7
-43 -12 -39 -6 -51 33 -74 76 -45 348 8 514 101 57 32 63 38 50 51 -13 13 -25
9 -108 -31 -108 -52 -201 -86 -237 -86 -14 0 -54 16 -89 35 -69 38 -94 43
-112 22 -15 -19 -3 -28 25 -21 19 5 24 2 24 -14 0 -31 -26 -47 -55 -34 -20 9
-25 19 -25 46 0 57 24 76 120 92 47 8 97 18 112 23 22 8 29 6 40 -11 13 -20
15 -20 106 25 117 57 236 146 220 164 -16 20 -27 16 -96 -27z"/>
<path d="M2034 1639 c-41 -59 -46 -72 -37 -92 21 -46 251 -141 373 -154 53 -5
59 -4 73 18 22 35 30 109 15 139 -11 20 -30 29 -102 47 -48 13 -130 43 -181
67 l-93 44 -48 -69z m56 -39 c-16 -31 -23 -18 -8 15 7 15 14 23 16 17 2 -6 -2
-21 -8 -32z m102 -45 c-2 -14 -9 -25 -14 -25 -5 0 -7 3 -5 8 2 4 7 15 10 25 9
25 15 21 9 -8z m38 -32 c-11 -17 -11 -17 -6 0 3 10 7 26 7 35 1 15 2 15 6 0 2
-10 -1 -25 -7 -35z m56 1 c-4 -14 -9 -24 -12 -21 -3 2 -2 17 2 31 3 15 9 25
11 22 3 -3 2 -17 -1 -32z"/>
<path d="M3931 1356 c-15 -18 -3 -46 20 -46 24 0 42 33 27 48 -16 16 -33 15
-47 -2z"/>
<path d="M4247 1343 c-12 -11 -8 -40 7 -52 11 -9 14 -8 12 5 0 9 5 19 13 22
10 3 12 0 8 -12 -4 -10 -3 -15 3 -11 16 10 12 42 -6 49 -20 8 -29 8 -37 -1z"/>
<path d="M4110 1225 c-31 -38 16 -73 50 -37 18 19 18 21 1 36 -22 20 -35 20
-51 1z"/>
</g>
</svg>